<svg width="512" height="512" xmlns="http://www.w3.org/2000/svg"><path d="M92 485c-22-3-58-6-59-34 1-28 9-57 24-81 21-13 48 13 71-3 22-5 38-28 60-29 30 19-14 35-25 48-11 4-40 34-11 22 17-11 37-39 54-10 66 62-69 89-114 87zm300-1c-40-3-81-19-107-51-14-23 29-24 37-44 12-18 43 29 46 7-13-21-46-26-52-50 22-19 46 11 67 17 22 13 43 0 63-6 23 15 30 46 32 72 3 53-49 56-86 55zm-142-77c-12-1-49-21-32-29 25 8 26-20 39-29 10 13 17 34 40 29 21 10-21 31-34 29h-13zm75-96c3-23 37-26 54-37 12-4 50-18 17-20-29 4-53 24-82 29-21-12-5-53 1-73 12-25 35-47 63-54 36-4 73 10 105 25 23 10 36 37 25 60-16 37-31 79-66 102-38 17-98-7-117-32zM89 347c-39-8-55-49-70-82-10-21-29-48-13-71 22-18 51-26 78-35 44-15 96 6 116 48 10 19 20 43 13 65-16 21-44-5-64-10-13-4-34-17-44-13 28 23 101 39 93 58-26 22-76 45-109 40zm144-97c-13-13-8-40-22-56-10-24-41-31-54-48-6-30 21-50 37-71 17-16 28-39 50-47 27-6 44 22 60 39 14 21 36 39 41 64 3 28-30 34-39 58-14 16-3 59-31 62-18-13-9-108-20-103-12 30 23 108-22 102z" fill="#ffd52b"/>
  <path d="M90 347c-6-1-16-5-22-9-17-12-29-30-50-74a6027 6027 0 0 0-8-18c-7-15-9-23-9-32s2-17 7-21c8-7 24-15 38-21l49-16c8-1 24-2 32 0 32 4 60 25 74 52 12 27 16 44 13 59 0 4-1 5-3 7l-5 4c-3 1-4 2-9 2-7-1-12-2-26-9l-22-9-12-4c-16-8-25-11-29-10l-3 1c-1 1 13 10 26 16l22 9c36 16 47 23 45 31a172 172 0 0 1-84 41c-6 1-20 2-24 1z" fill="#9a2d8a"/>
  <path d="M235 250c-4-1-8-9-11-20l-7-27-4-7-3-4c-5-10-11-16-30-28-13-9-21-15-23-18-2-4-1-14 1-21 3-10 9-19 25-36a609 609 0 0 0 26-31c10-12 18-20 24-24 17-11 32-8 51 11a429 429 0 0 1 33 40c14 16 17 22 22 30 5 11 7 21 4 29-3 6-6 11-21 24a76 76 0 0 0-25 49c-3 16-5 22-10 27-2 3-6 5-9 6-3 0-4-1-7-6-5-9-7-23-9-61-2-28-3-35-6-35-1-1-1 0-2 1-2 8-2 21 0 43 4 36 3 49-6 55-3 2-9 3-13 3zm168 98c-28-3-60-17-75-34-2-2-2-3-2-5 1-6 6-12 13-16 5-3 8-5 21-10a246 246 0 0 0 27-11c15-6 23-11 22-15 0-1-3-3-9-3h-9c-10 2-17 5-44 17-12 6-20 9-27 10l-6 2-2-2c-3-2-5-5-7-10l-1-11c0-10 2-18 8-39 4-11 5-15 10-23 13-19 31-33 50-40 5-2 6-2 15-2 12 0 20 1 32 3 19 4 40 11 63 22 15 7 23 17 28 30 2 6 2 16 1 21l-23 52a151 151 0 0 1-42 55c-6 4-12 7-20 8l-23 1zm-17 135c-14-2-26-4-36-8-24-8-44-20-60-36-5-6-7-8-7-13-1-4 0-6 4-10l19-12c7-4 13-9 16-13 2-4 4-6 8-6s8 2 19 10c13 8 16 9 18 5 1-2 1-4-2-7-4-7-10-11-25-21-13-9-20-16-22-23v-4c5-4 13-6 21-4 5 2 12 5 23 12a104 104 0 0 0 23 12l6 2c4 1 5 2 13 2 10 0 12-1 30-7l12-5 2 2 7 6c11 11 17 26 21 50l2 18c0 11-1 14-5 23-2 4-3 6-8 10-7 7-14 11-26 14-10 3-16 3-34 3h-19zm-298 1-10-2c-27-4-42-12-44-27v-11c2-24 9-49 19-67 5-7 5-7 9-9 7-2 14-2 29 2l18 2c8 0 13-1 17-4l7-3c6-2 11-4 23-12 14-10 21-13 29-14l5 1c5 4 8 7 8 11 0 7-5 12-23 25a160 160 0 0 0-17 13c-8 5-19 16-19 20 0 1 1 2 3 2l13-5 11-8c8-7 13-10 18-12 4-1 9-1 12 1l9 9 5 6c17 18 18 34 4 48-15 15-48 27-90 33-9 1-32 2-36 1z" fill="#9a2d8a"/>
  <path d="M251 407c-15-2-37-16-37-24l2-3 3-2c3 1 7 2 10 1 7-1 11-5 18-16 5-9 8-13 10-13l6 9c7 10 12 15 17 17 4 2 4 2 11 2h7l2 3c3 3 3 7-2 11-6 6-15 11-24 13-6 2-16 2-23 2z" fill="#9a2d8a"/>
  <path d="M280 353c-3-5-3-8-3-24 0-15 0-17-2-23l-7-25c-3-6-3-8-2-10 9-2 17 7 22 12 8 8 12 14 14 23 5 17-2 44-13 50-4 2-7 1-9-3zm-55 3c-9-4-17-26-15-44 1-8 3-14 7-21 4-5 23-26 30-21 2 1 1 5-1 10l-8 26c-2 6-2 9-2 23 0 17 0 18-3 24-2 3-5 4-8 3z" fill="#b9b9b9"/>
  <path d="m224 355-4-3-8-18c-1-5-2-7-2-16l1-14c3-9 9-18 19-26 6-6 10-8 14-8 2-1 3 0 3 1 1 2 0 4-3 14l-7 24-1 21-2 20c-1 3-4 6-6 6l-4-1zm58 0c-1-1-3-3-3-5l-2-29c0-11-2-22-8-38l-3-9 1-2c5-2 10 1 18 9 13 13 17 20 18 34 1 20-8 42-18 42l-3-2z" fill="#ffd52b"/>
</svg>